<?xml version="1.0" encoding="UTF-8" standalone="no"?>
<!-- Created with Inkscape (http://www.inkscape.org/) -->

<svg
   width="210mm"
   height="297mm"
   viewBox="0 0 210 297"
   version="1.1"
   id="svg1"
   inkscape:version="1.4 (e7c3feb, 2024-10-09)"
   sodipodi:docname="drawing3.svg"
   xmlns:inkscape="http://www.inkscape.org/namespaces/inkscape"
   xmlns:sodipodi="http://sodipodi.sourceforge.net/DTD/sodipodi-0.dtd"
   xmlns="http://www.w3.org/2000/svg"
   xmlns:svg="http://www.w3.org/2000/svg">
  <sodipodi:namedview
     id="namedview1"
     pagecolor="#ffffff"
     bordercolor="#000000"
     borderopacity="0.25"
     inkscape:showpageshadow="2"
     inkscape:pageopacity="0.0"
     inkscape:pagecheckerboard="0"
     inkscape:deskcolor="#d1d1d1"
     inkscape:document-units="mm"
     inkscape:zoom="0.37417734"
     inkscape:cx="364.80029"
     inkscape:cy="550.54109"
     inkscape:window-width="1366"
     inkscape:window-height="727"
     inkscape:window-x="0"
     inkscape:window-y="22"
     inkscape:window-maximized="1"
     inkscape:current-layer="svg1" />
  <defs
     id="defs1">
    <rect
       x="34.742884"
       y="40.087944"
       width="729.60057"
       height="761.67093"
       id="rect3" />
    <rect
       x="122.93636"
       y="125.60889"
       width="595.97409"
       height="280.6156"
       id="rect2" />
    <rect
       x="101.55612"
       y="93.538535"
       width="609.33674"
       height="208.45731"
       id="rect1" />
  </defs>
  <path
     d="m 68.342187,160.08122 q 0,3.84 -2.88,6.912 -2.88,2.88 -2.88,4.8 0,2.112 1.344,4.992 1.92,4.224 4.8,5.184 3.072,0.96 14.784,0.96 9.984,0 14.976,-1.152 4.992003,-1.152 9.600003,-4.608 7.488,-5.376 9.216,-8.448 1.92,-3.264 1.92,-10.944 0,-5.76 -2.112,-8.064 -2.112,-2.496 -11.328,-6.72 -13.248002,-6.144 -17.088003,-6.144 -8.256,0 -25.344,-14.4 -16.895999,-14.4 -16.895999,-21.504 0,-10.175999 10.367999,-23.231999 10.368001,-13.248 23.232001,-19.392 6.528,-3.264 24.768002,-3.264 8.064,0 12.096,1.152 4.032,1.152 8.64,4.992 3.264,2.688 5.76,6.336 2.496,3.456 2.496,5.376 0,4.608 -1.536,4.608 -1.536,0 -4.032,-1.92 -2.496,-1.92 -5.184,-4.032 -2.688,-2.304 -7.68,-4.224 -4.992,-1.92 -10.944,-1.92 -16.128002,0 -29.568003,11.712 -13.247999,11.712 -13.247999,25.343999 0,11.136 39.552002,23.808 31.104,9.792 31.104,30.528 0,4.224 -1.536,9.792 -4.416,14.976 -14.976,20.736 -10.56,5.76 -36.864003,7.488 l -17.279999,1.152 -5.184001,-10.752 q -4.031999,-7.872 -4.031999,-15.744 0,-6.528 3.072,-10.56 3.071999,-4.032 8.64,-4.032 4.223999,0 4.223999,5.184 z m 192.191723,22.464 q 0,2.688 -1.728,4.416 -1.536,1.536 -2.88,1.92 -1.152,0.192 -2.112,0.192 -4.608,0 -6.528,-9.408 -1.92,-9.6 -2.496,-34.752 -0.768,-36.288 -2.88,-36.288 -1.536,0 -6.912,2.496 -5.376,2.496 -16.32,7.488 -10.944,4.992 -22.08,9.216 l -16.128,6.144 1.152,34.752 q 0.384,13.44 0.384,17.472 0,21.504 -4.416,21.504 -0.96,0 -3.072,-1.344 -4.032,-2.88 -5.952,-19.584 -1.92,-16.704 -4.224,-68.352 -1.536,-35.135999 -1.536,-55.679999 0,-16.704 1.536,-20.352 1.152,-2.88 2.88,-4.8 1.728,-2.112 3.072,-2.112 3.072,0 6.144,40.128 3.072,39.935999 6.144,39.935999 0.384,0 2.88,-0.96 2.496,-1.152 12.48,-4.8 10.176,-3.648 25.536,-8.448 13.248,-4.415999 15.36,-6.527999 2.496,-2.112 4.224,-17.088 1.536,-13.824 3.072,-18.432 1.536,-4.8 4.8,-4.8 4.224,0 5.568,12.096 1.536,12.096 1.728,51.455999 0.192,15.168 0.384,26.88 0.384,11.52 0.576,17.664 0.384,5.952 0.576,10.176 0.192,4.032 0.384,5.376 0.192,1.344 0.192,2.496 0.192,0.96 0.192,1.92 z m 26.30371,14.784 q 0,-2.88 4.032,-8.64 4.032,-5.952 4.032,-8.64 0,-3.648 2.688,-4.608 2.112,-0.768 5.568,-10.368 3.648,-9.6 6.336,-12.864 2.688,-3.072 5.952,-10.368 3.264,-7.296 12.672,-31.872 5.952,-15.359999 16.512,-37.055999 10.56,-21.696 13.056,-23.424 2.304,-1.344 3.072,-1.344 1.344,0 3.84,1.728 2.112,1.536 8.256,21.696 6.336,20.16 6.336,25.92 0.192,3.839999 3.648,17.471999 3.456,13.44 4.8,21.312 1.152,7.872 5.952,24.96 4.992,16.896 4.992,20.928 0,4.032 -2.688,4.032 -2.112,0 -5.952,-2.112 -1.728,-0.96 -2.88,-2.112 -1.152,-1.152 -1.92,-2.496 -0.576,-1.344 -1.344,-4.224 -0.768,-2.88 -1.344,-5.568 -0.576,-2.688 -1.92,-8.64 -1.152,-5.952 -2.496,-11.52 l -3.648,-15.168 -9.408,1.152 q -10.368,1.536 -22.848,2.496 l -13.44,1.152 -5.568,10.56 q -15.552,28.992 -20.928,42.048 -4.416,10.368 -9.408,10.368 -2.112,0 -4.032,-1.152 -1.92,-1.152 -1.92,-3.648 z m 83.52,-79.104 q 0,-5.184 -4.416,-24.959999 -4.224,-19.968 -6.336,-19.968 -1.536,0 -9.984,17.088 -8.256,16.895999 -13.44,30.719999 l -2.304,5.952 15.168,-1.152 q 14.016,-1.152 17.664,-2.304 3.648,-1.344 3.648,-5.376 z m 87.5518,-41.087999 q -6.336,0 -13.248,1.536 -6.912,1.536 -9.024,1.536 -4.8,0 -8.256,-1.728 -3.264,-1.728 -3.264,-4.416 0,-3.264 4.224,-4.416 4.416,-1.344 23.04,-4.224 37.824,-5.76 72.384,-12.48 21.312,-4.032 27.648,-4.032 5.952,0 12.096,2.496 6.144,2.496 6.144,5.568 0,2.88 -4.992,4.992 -4.992,1.92 -13.248,1.92 -12.864,0 -27.456,3.456 l -14.784,3.456 2.88,16.128 q 2.112,14.975999 4.992,57.407999 3.072,42.24 3.648,47.232 0.576,4.992 0.576,7.488 0,5.952 -5.184,5.952 -4.992,0 -7.488,-12.48 -2.304,-12.48 -4.416,-48.96 -3.84,-62.207999 -9.984,-68.735999 -1.536,-1.536 -4.992,-1.536 -1.536,0 -13.248,1.92 -11.52,1.92 -18.048,1.92 z m 129.98377,-0.576 q 0,-5.76 1.536,-9.6 1.728,-4.032 3.264,-5.184 1.536,-1.344 2.688,-1.344 2.112,0 6.912,-2.496 4.8,-2.688 10.368,-5.76 5.76,-3.072 16.128,-5.568 10.368,-2.688 22.08,-2.688 17.472,0 17.472,5.568 0,2.688 -18.432,5.952 -14.976,2.496 -28.224,7.296 -13.248,4.608 -17.856,9.024 -2.88,2.88 -2.88,8.256 0,1.152 0.192,4.608 0.384,3.264 1.152,10.56 0.768,7.295999 1.344,14.399999 1.152,15.936 3.264,15.936 0.576,0 1.344,-0.576 3.264,-1.92 21.888,-6.336 18.816,-4.416 23.616,-4.416 5.76,0 5.76,4.8 0,3.456 -6.528,6.144 -6.528,2.688 -26.112,7.68 -14.4,3.456 -17.856,5.184 -3.264,1.728 -3.264,5.376 0,0.192 0.384,24 l 0.576,16.512 h 9.792 q 8.64,0 21.888,-3.456 13.44,-3.648 22.272,-8.448 5.952,-3.264 8.064,-3.264 1.92,0 3.84,2.304 1.92,2.112 1.92,4.224 0,6.72 -20.928,14.976 -20.736,8.064 -40.704,8.064 -12.096,0 -14.592,-3.648 -2.112,-2.496 -3.264,-15.168 -1.152,-12.864 -2.688,-38.208 -1.344,-25.536 -3.072,-43.583999 -1.344,-14.016 -1.344,-21.12 z M 45.686188,316.75322 q 0,-3.264 8.64,-13.056 8.639999,-9.792 10.943999,-9.792 7.296,0 31.872001,3.072 24.576002,3.072 29.376002,4.608 12.864,3.648 12.864,17.472 0,6.528 -3.264,13.44 -3.072,6.72 -6.912,11.328 -3.84,4.416 -7.104,8.256 -3.072,3.84 -3.072,4.8 0,1.344 -11.136,8.64 -10.944003,7.104 -19.392002,11.52 -6.912001,3.84 -6.912001,4.8 0,0.384 7.104,2.88 7.296001,2.304 17.472003,6.336 10.176,4.032 15.744,7.872 8.832,6.144 10.752,6.144 2.688,0.192 8.64,6.528 6.144,6.144 6.144,8.832 0,4.8 -3.456,4.8 -3.072,0 -9.792,-3.456 -6.528,-3.648 -18.048,-9.792 -11.52,-6.336 -22.656003,-10.752 l -14.975999,-5.952 0.768,22.464 q 0.192,4.992 0.192,14.4 0,4.608 -0.96,6.528 -0.96,2.112 -4.224,2.112 -7.296001,0 -7.296001,-23.424 0,-24.576 -7.872,-28.224 -5.759999,-2.496 -5.759999,-6.912 0,-4.032 5.567999,-6.72 l 6.336,-2.88 -1.536,-21.888 q -1.152,-17.472 -2.495999,-24.192 -1.152001,-6.912 -3.264001,-6.912 -0.575999,0 -2.304,1.344 -1.727999,1.344 -4.224,1.344 -2.304,0 -4.032,-1.536 -1.727999,-1.536 -1.727999,-4.032 z m 82.368002,0.96 q 0,-0.768 -0.576,-1.152 -0.576,-0.576 -3.84,-1.536 -3.264,-1.152 -9.792,-3.072 -13.056,-3.648 -26.496002,-3.648 h -13.824 l 1.343999,10.368 q 0.576001,3.84 1.728,16.32 1.152001,12.288 2.112001,21.888 0.959999,9.408 1.344,9.408 2.687999,0 14.207999,-6.336 11.520003,-6.336 16.128003,-10.56 4.992,-4.416 11.328,-15.936 6.336,-11.52 6.336,-15.744 z m 41.47194,-1.152 q 0,-5.76 1.536,-9.6 1.728,-4.032 3.264,-5.184 1.536,-1.344 2.688,-1.344 2.112,0 6.912,-2.496 4.8,-2.688 10.368,-5.76 5.76,-3.072 16.128,-5.568 10.368,-2.688 22.08,-2.688 17.472,0 17.472,5.568 0,2.688 -18.432,5.952 -14.976,2.496 -28.224,7.296 -13.248,4.608 -17.856,9.024 -2.88,2.88 -2.88,8.256 0,1.152 0.192,4.608 0.384,3.264 1.152,10.56 0.768,7.296 1.344,14.4 1.152,15.936 3.264,15.936 0.576,0 1.344,-0.576 3.264,-1.92 21.888,-6.336 18.816,-4.416 23.616,-4.416 5.76,0 5.76,4.8 0,3.456 -6.528,6.144 -6.528,2.688 -26.112,7.68 -14.4,3.456 -17.856,5.184 -3.264,1.728 -3.264,5.376 0,0.192 0.384,24 l 0.576,16.512 h 9.792 q 8.64,0 21.888,-3.456 13.44,-3.648 22.272,-8.448 5.952,-3.264 8.064,-3.264 1.92,0 3.84,2.304 1.92,2.112 1.92,4.224 0,6.72 -20.928,14.976 -20.736,8.064 -40.704,8.064 -12.096,0 -14.592,-3.648 -2.112,-2.496 -3.264,-15.168 -1.152,-12.864 -2.688,-38.208 -1.344,-25.536 -3.072,-43.584 -1.344,-14.016 -1.344,-21.12 z"
     id="text2"
     style="font-size:192px;font-family:Purisa;-inkscape-font-specification:Purisa;white-space:pre;stroke:#000000;stroke-width:1.00157"
     transform="scale(0.26458333)"
     aria-label="SHATE&#10;RE" />
</svg>
