<?xml version="1.0" encoding="UTF-8" standalone="no"?>
<!-- Created with Inkscape (http://www.inkscape.org/) -->

<svg
   width="210mm"
   height="297mm"
   viewBox="0 0 210 297"
   version="1.1"
   id="svg1"
   sodipodi:docname="input_good.svg"
   inkscape:version="1.4 (e7c3feb, 2024-10-09)"
   xmlns:inkscape="http://www.inkscape.org/namespaces/inkscape"
   xmlns:sodipodi="http://sodipodi.sourceforge.net/DTD/sodipodi-0.dtd"
   xmlns="http://www.w3.org/2000/svg"
   xmlns:svg="http://www.w3.org/2000/svg">
  <sodipodi:namedview
     id="namedview1"
     pagecolor="#ffffff"
     bordercolor="#000000"
     borderopacity="0.25"
     inkscape:showpageshadow="2"
     inkscape:pageopacity="0.0"
     inkscape:pagecheckerboard="0"
     inkscape:deskcolor="#d1d1d1"
     inkscape:document-units="mm"
     showguides="false"
     inkscape:zoom="0.86951686"
     inkscape:cx="334.09358"
     inkscape:cy="146.05812"
     inkscape:window-width="1366"
     inkscape:window-height="749"
     inkscape:window-x="0"
     inkscape:window-y="0"
     inkscape:window-maximized="1"
     inkscape:current-layer="layer1" />
  <defs
     id="defs1">
    <rect
       x="135.70755"
       y="139.15774"
       width="234.61305"
       height="197.811"
       id="rect4" />
    <rect
       x="18.401023"
       y="28.751599"
       width="749.8417"
       height="511.77846"
       id="rect3" />
  </defs>
  <g
     inkscape:label="Layer 1"
     inkscape:groupmode="layer"
     id="layer1">
    <path
       style="font-size:74.6667px;font-family:Purisa;-inkscape-font-specification:Purisa;white-space:pre;fill:none;stroke:#000000;stroke-width:1.00157"
       d="m 34.901732,48.521129 q -2.464001,0 -5.152003,0.597334 -2.688001,0.597333 -3.509335,0.597333 -1.866667,0 -3.210668,-0.672 -1.269334,-0.672 -1.269334,-1.717334 0,-1.269334 1.642668,-1.717334 1.717334,-0.522667 8.960004,-1.642668 14.70934,-2.240001 28.149347,-4.853335 8.288004,-1.568001 10.752005,-1.568001 2.314668,0 4.704002,0.970667 2.389335,0.970667 2.389335,2.165334 0,1.120001 -1.941335,1.941335 -1.941334,0.746667 -5.152002,0.746667 -5.002669,0 -10.677339,1.344 l -5.749336,1.344001 1.120001,6.272003 q 0.821334,5.824003 1.941334,22.325344 1.194667,16.426675 1.418667,18.368009 0.224001,1.941334 0.224001,2.912001 0,2.314668 -2.016001,2.314668 -1.941335,0 -2.912002,-4.853336 -0.896,-4.853335 -1.717334,-19.040009 -1.493334,-24.192011 -3.882668,-26.730679 -0.597334,-0.597334 -1.941335,-0.597334 -0.597333,0 -5.152002,0.746667 -4.480002,0.746667 -7.01867,0.746667 z m 90.197288,40.99202 q 0,1.045334 -0.672,1.717334 -0.59733,0.597334 -1.12,0.746667 -0.448,0.07467 -0.82133,0.07467 -1.79201,0 -2.53867,-3.658669 -0.74667,-3.733335 -0.97067,-13.514673 -0.29867,-14.112007 -1.12,-14.112007 -0.59733,0 -2.688,0.970668 -2.09067,0.970667 -6.34667,2.912001 -4.256,1.941334 -8.58667,3.584002 l -6.272005,2.389334 0.448,13.514673 q 0.149334,5.226669 0.149334,6.79467 0,8.362671 -1.717334,8.362671 -0.373334,0 -1.194668,-0.522667 -1.568,-1.120001 -2.314667,-7.616004 -0.746667,-6.496003 -1.642668,-26.581346 -0.597333,-13.664006 -0.597333,-21.653343 0,-6.496004 0.597333,-7.914671 0.448,-1.12 1.120001,-1.866667 0.672,-0.821334 1.194667,-0.821334 1.194667,0 2.389334,15.605341 1.194668,15.530674 2.389335,15.530674 0.149333,0 1.12,-0.373334 0.970668,-0.448 4.853341,-1.866667 3.95733,-1.418668 9.93067,-3.285335 5.152,-1.717334 5.97333,-2.538668 0.97067,-0.821334 1.64267,-6.645337 0.59733,-5.376002 1.19467,-7.168003 0.59733,-1.866668 1.86666,-1.866668 1.64267,0 2.16534,4.704003 0.59733,4.704002 0.672,20.010676 0.0747,5.898669 0.14933,10.453338 0.14934,4.480002 0.224,6.869337 0.14934,2.314667 0.224,3.957335 0.0747,1.568001 0.14934,2.090668 0.0747,0.522667 0.0747,0.970667 0.0747,0.373333 0.0747,0.746667 z m 10.07989,-41.21602 q 0,-2.240001 0.59733,-3.733335 0.672,-1.568001 1.26934,-2.016001 0.59733,-0.522667 1.04533,-0.522667 0.82134,0 2.688,-0.970667 1.86667,-1.045334 4.032,-2.240001 2.24001,-1.194667 6.27201,-2.165334 4.032,-1.045334 8.58667,-1.045334 6.79467,0 6.79467,2.165334 0,1.045334 -7.168,2.314668 -5.82401,0.970667 -10.97601,2.837335 -5.152,1.792 -6.944,3.509335 -1.12,1.12 -1.12,3.210668 0,0.448 0.0747,1.792001 0.14934,1.269334 0.448,4.106668 0.29867,2.837335 0.52267,5.600003 0.448,6.197336 1.26933,6.197336 0.224,0 0.52267,-0.224 1.26933,-0.746667 8.512,-2.464001 7.31734,-1.717334 9.18401,-1.717334 2.24,0 2.24,1.866667 0,1.344001 -2.53867,2.389335 -2.53867,1.045334 -10.15467,2.986668 -5.6,1.344001 -6.944,2.016001 -1.26934,0.672 -1.26934,2.090668 0,0.07467 0.14934,9.333337 l 0.224,6.421337 h 3.808 q 3.36,0 8.512,-1.344001 5.22667,-1.418667 8.66134,-3.285335 2.31467,-1.269334 3.136,-1.269334 0.74667,0 1.49334,0.896001 0.74666,0.821333 0.74666,1.642667 0,2.613335 -8.13867,5.824003 -8.064,3.136001 -15.82934,3.136001 -4.704,0 -5.67467,-1.418667 -0.82133,-0.970667 -1.26933,-5.898669 -0.448,-5.00267 -1.04534,-14.858674 -0.52266,-9.930672 -1.19466,-16.949342 -0.52267,-5.450669 -0.52267,-8.213337 z m 99.67989,32.480016 q 0,1.493334 -1.12,2.688001 -1.12,1.12 -1.12,1.866667 0,0.821334 0.52267,1.941335 0.74667,1.642667 1.86667,2.016001 1.19466,0.373333 5.74933,0.373333 3.88267,0 5.824,-0.448 1.94134,-0.448 3.73334,-1.792001 2.912,-2.090668 3.584,-3.285335 0.74667,-1.269334 0.74667,-4.256002 0,-2.240001 -0.82134,-3.136001 -0.82133,-0.970667 -4.40533,-2.613335 -5.152,-2.389334 -6.64534,-2.389334 -3.21067,0 -9.856,-5.600003 -6.57067,-5.600003 -6.57067,-8.362671 0,-3.957335 4.032,-9.034671 4.032,-5.152002 9.03467,-7.541337 2.53867,-1.269334 9.63201,-1.269334 3.136,0 4.704,0.448001 1.568,0.448 3.36,1.941334 1.26933,1.045334 2.24,2.464001 0.97067,1.344001 0.97067,2.090668 0,1.792001 -0.59734,1.792001 -0.59733,0 -1.568,-0.746667 -0.97066,-0.746667 -2.016,-1.568001 -1.04533,-0.896001 -2.98667,-1.642668 -1.94133,-0.746667 -4.256,-0.746667 -6.272,0 -11.49867,4.554669 -5.152,4.554669 -5.152,9.856005 0,4.330669 15.38134,9.258671 12.096,3.808002 12.096,11.872006 0,1.642667 -0.59733,3.808001 -1.71733,5.824003 -5.824,8.064004 -4.10667,2.240001 -14.33601,2.912002 l -6.72,0.448 -2.016,-4.181335 q -1.568,-3.061335 -1.568,-6.12267 0,-2.538668 1.19466,-4.106669 1.19467,-1.568 3.36,-1.568 1.64267,0 1.64267,2.016001 z m 35.09325,-32.480016 q 0,-2.240001 0.59733,-3.733335 0.672,-1.568001 1.26934,-2.016001 0.59733,-0.522667 1.04533,-0.522667 0.82134,0 2.688,-0.970667 1.86667,-1.045334 4.032,-2.240001 2.24001,-1.194667 6.27201,-2.165334 4.032,-1.045334 8.58667,-1.045334 6.79467,0 6.79467,2.165334 0,1.045334 -7.168,2.314668 -5.82401,0.970667 -10.97601,2.837335 -5.152,1.792 -6.944,3.509335 -1.12,1.12 -1.12,3.210668 0,0.448 0.0747,1.792001 0.14934,1.269334 0.448,4.106668 0.29867,2.837335 0.52267,5.600003 0.448,6.197336 1.26933,6.197336 0.224,0 0.52267,-0.224 1.26933,-0.746667 8.512,-2.464001 7.31734,-1.717334 9.18401,-1.717334 2.24,0 2.24,1.866667 0,1.344001 -2.53867,2.389335 -2.53867,1.045334 -10.15467,2.986668 -5.6,1.344001 -6.944,2.016001 -1.26934,0.672 -1.26934,2.090668 0,0.07467 0.14934,9.333337 l 0.224,6.421337 h 3.808 q 3.36,0 8.512,-1.344001 5.22667,-1.418667 8.66134,-3.285335 2.31467,-1.269334 3.136,-1.269334 0.74667,0 1.49334,0.896001 0.74666,0.821333 0.74666,1.642667 0,2.613335 -8.13867,5.824003 -8.064,3.136001 -15.82934,3.136001 -4.704,0 -5.67467,-1.418667 -0.82133,-0.970667 -1.26933,-5.898669 -0.448,-5.00267 -1.04534,-14.858674 -0.52266,-9.930672 -1.19466,-16.949342 -0.52267,-5.450669 -0.52267,-8.213337 z m 86.91192,23.594678 q 0,0.896 -1.26933,3.360002 -1.19467,2.464001 -3.584,5.674669 -2.31467,3.210668 -5.22667,6.197336 -2.83734,2.912002 -6.64534,4.928003 -3.808,2.016001 -7.46667,2.016001 -9.03467,0 -14.63467,-11.498673 -0.74667,-1.493334 -0.74667,-10.154671 0,-15.605341 1.49334,-20.83201 1.86666,-6.869337 9.184,-12.021339 7.31734,-5.226669 13.88801,-5.226669 3.43467,0 6.272,2.240001 2.912,2.165334 2.912,4.853336 0,0.970667 -1.12,0.970667 -0.82133,0 -1.71733,-0.522667 -0.896,-0.522667 -1.344,-1.344001 -0.74667,-1.642667 -2.31467,-1.642667 -3.88267,0 -9.40801,2.613334 -5.45067,2.613335 -8.36267,5.824003 -2.464,2.688001 -3.73333,8.288004 -1.26934,5.600003 -1.26934,16.949341 0,5.376003 1.41867,8.736005 1.41867,3.360001 4.10667,5.450669 2.688,2.090667 5.52534,2.090667 1.94133,0 5.45067,-1.642667 3.50933,-1.642667 4.928,-3.210668 l 3.808,-3.808002 q 1.792,-1.717334 3.73333,-4.405335 2.01601,-2.762668 3.21067,-4.405336 1.26934,-1.642667 2.09067,-1.642667 0.82133,0 0.82133,2.165334 z m 50.99732,-12.394673 q 0,6.048003 -1.568,12.544006 -1.49333,6.421337 -3.65867,11.050672 -2.09066,4.629336 -4.40533,7.690671 -2.24,2.986668 -3.73334,2.986668 -1.19466,0 -1.568,1.194667 -0.224,0.672 -3.28533,1.194667 -2.98667,0.597334 -6.27201,0.597334 -2.016,0 -3.21066,-0.522667 -1.19467,-0.448 -3.13601,-1.941334 -3.95733,-3.136002 -6.944,-9.781338 -2.98667,-6.720003 -2.98667,-12.618673 0,-6.79467 3.06134,-13.514673 3.06133,-6.79467 7.76534,-10.154672 4.48,-3.136001 5.97333,-3.136001 0.97067,0 3.06134,-2.016001 2.09066,-2.016001 3.36,-2.016001 1.41867,0 2.31467,-0.970667 0.97066,-1.045334 2.76266,-1.045334 5.60001,0 9.03467,5.600003 3.43467,5.525336 3.43467,14.858673 z m -4.10667,-1.418667 q 0,-2.165334 -2.16533,-6.421336 -2.09067,-4.256002 -2.912,-4.778669 -0.896,-0.597334 -2.83734,-0.597334 -3.28533,0 -8.512,1.717334 -11.34934,3.584002 -13.88801,18.890676 -0.74666,4.629336 -0.74666,6.048003 0,2.165334 1.792,7.46667 4.032,11.274672 10.976,11.274672 1.94134,0 4.18134,-0.896 2.61333,-0.970667 6.34667,-6.496003 3.808,-5.600003 4.40533,-9.258671 0.37334,-3.061335 1.86667,-9.258672 1.49333,-6.197336 1.49333,-7.69067 z m 20.38391,13.290673 q 0,3.808002 0.29867,6.645337 0.29866,2.837334 0.29866,3.584001 0,3.808002 -1.04533,7.317337 -0.97067,3.434668 -2.16533,3.434668 -1.79201,-0.07467 -2.53867,-0.672 -0.672,-0.597333 -1.04534,-2.986668 -0.37333,-2.464001 -0.37333,-7.989337 0,-9.557338 0.52267,-25.536012 0.52266,-16.053341 0.97066,-17.173342 0.82134,-1.866667 3.06134,-1.866667 1.26933,0 2.53867,0.821333 0.97066,0.597334 5.52533,7.168004 4.62934,6.496003 4.62934,7.24267 0,0.448 1.344,2.538668 1.344,2.016001 4.62933,7.69067 3.36001,5.600003 6.94401,12.69334 7.76533,15.306673 10.15467,15.306673 0.29867,0 0.52267,-0.149333 0.224,-0.149333 0.59733,-1.194667 0.37333,-1.045334 0.672,-2.912002 0.29867,-1.941334 0.59733,-5.749336 0.37334,-3.882668 0.672,-9.333337 1.344,-21.280011 2.24001,-24.938679 0.74666,-3.285335 2.53866,-3.733335 0.448,-0.07467 1.12,-0.07467 1.26934,0 1.792,0.970667 0.59734,0.970667 0.59734,3.360002 0,1.642667 -0.37334,5.226669 -0.37333,3.584002 -1.19466,11.125339 -0.74667,7.541337 -1.41867,16.053341 -0.82133,11.349338 -1.86667,14.784007 -0.97066,3.360001 -3.73333,3.360001 -4.85334,0 -8.73601,-3.882668 -3.88267,-3.882669 -7.98933,-12.245339 -2.01601,-4.032002 -3.58401,-6.869337 -1.568,-2.912001 -2.09066,-3.733335 -0.52267,-0.896 -0.896,-1.717334 -0.37334,-0.896001 -0.74667,-2.314668 -0.52267,-2.314668 -5.30134,-9.632005 -4.77867,-7.392003 -4.85333,-7.616003 -0.0747,-0.149334 -0.224,-0.149334 -0.74667,0 -1.41867,7.914671 -0.672,7.840004 -0.672,15.232007 z m 53.53592,-26.656013 q 0,-1.045333 0.97067,-2.538667 0.97066,-1.493335 1.792,-1.493335 0.97066,0 2.24,-1.792 1.19467,-1.792001 7.31734,-2.464002 7.84,-0.746667 10.304,-0.746667 3.136,0 7.69067,0.821334 13.06667,2.240001 18.36801,6.645337 5.30133,4.330668 5.30133,13.141339 0,7.840004 -2.688,14.858674 -2.61333,7.01867 -6.79467,11.722672 -4.18133,4.704003 -8.81067,7.840004 -4.62933,3.061335 -9.03467,4.106669 -1.86667,0.448 -2.76267,1.418667 -0.896,1.045334 -0.97066,1.941334 -0.0747,0.896001 -0.74667,1.568001 -0.59733,0.746663 -2.016,0.746663 -2.31467,0 -2.31467,-0.895996 0,-0.522667 -0.59733,-0.896001 -0.59734,-0.373333 -1.344,-0.597333 -0.672,-0.224001 -1.26934,-0.970668 -0.59733,-0.746667 -0.59733,-1.941334 0,-2.016001 1.41867,-2.538668 1.41866,-0.522667 1.41866,-6.346669 0,-3.061335 -0.37333,-6.197337 -0.37333,-3.210668 -1.26933,-9.632004 -0.82134,-6.496003 -1.568,-14.336007 l -1.19467,-12.91734 -2.688,0.224 q -1.71734,0.149334 -3.28534,1.269334 -1.568,1.045334 -2.53867,2.016001 -0.97066,0.970667 -1.49333,0.970667 -0.52267,0 -1.49333,-1.045333 -0.97067,-1.120001 -0.97067,-1.941335 z m 17.84534,0.224001 q 0,2.314667 2.09067,17.546675 2.16533,15.232007 2.16533,19.861342 0,1.493334 -0.14933,2.986668 l -0.59733,3.808002 h 4.032 q 6.64533,0 15.08267,-9.408004 4.77867,-5.376003 6.42134,-10.826672 1.71733,-5.450669 1.71733,-13.290673 0,-3.285335 -0.52266,-4.554669 -0.448,-1.269334 -2.16534,-3.210668 -1.71733,-1.866668 -3.88267,-2.762668 -2.16533,-0.896001 -7.09333,-1.866668 -8.96001,-1.493334 -13.51468,-1.493334 -2.09066,0 -2.83733,0.522667 -0.74667,0.522667 -0.74667,2.688002 z m 97.21598,-7.093337 q 0,-1.866668 1.12,-1.866668 1.49334,0 2.61334,2.762668 0.97067,2.464001 1.94133,23.520011 1.04534,22.026678 1.71734,25.013346 0.52266,2.314667 1.94133,2.464001 0.29867,0.07467 0.896,0.07467 1.94134,0 8.88534,-1.568001 7.01867,-1.642668 13.21601,-3.210668 6.272,-1.642668 6.496,-1.642668 1.26933,0 2.016,0.970667 0.82133,0.970667 0.82133,1.568001 0,0.522667 -1.41866,1.866668 -2.38934,1.941334 -13.88801,4.853335 -11.49867,2.912002 -18.36801,2.912002 -3.136,0 -4.10667,-1.120001 -1.568,-1.792001 -2.24,-11.349339 -0.224,-3.957335 -0.82133,-17.845341 -0.82134,-19.71201 -0.82134,-27.40268 z m 50.69856,57.418694 q 0,-1.120001 1.568,-3.360002 1.568,-2.314668 1.568,-3.360001 0,-1.418668 1.04534,-1.792001 0.82133,-0.298667 2.16533,-4.032002 1.41867,-3.733335 2.464,-5.002669 1.04534,-1.194667 2.31467,-4.032002 1.26933,-2.837335 4.928,-12.394673 2.31467,-5.973336 6.42134,-14.410673 4.10667,-8.437338 5.07733,-9.109338 0.896,-0.522667 1.19467,-0.522667 0.52267,0 1.49333,0.672 0.82134,0.597334 3.21067,8.437338 2.464,7.840004 2.464,10.080005 0.0747,1.493334 1.41867,6.79467 1.344,5.226669 1.86667,8.288004 0.448,3.061334 2.31467,9.706671 1.94133,6.57067 1.94133,8.13867 0,1.568001 -1.04533,1.568001 -0.82134,0 -2.31467,-0.821334 -0.672,-0.373333 -1.12,-0.821333 -0.448,-0.448001 -0.74667,-0.970667 -0.224,-0.522667 -0.52266,-1.642668 -0.29867,-1.12 -0.52267,-2.165334 -0.224,-1.045334 -0.74667,-3.360002 -0.448,-2.314668 -0.97067,-4.480002 l -1.41866,-5.89867 -3.65867,0.448001 q -4.032,0.597333 -8.88534,0.970667 l -5.22667,0.448 -2.16533,4.106669 q -6.04801,11.274672 -8.13867,16.352007 -1.71734,4.032002 -3.65867,4.032002 -0.82134,0 -1.568,-0.448 -0.74667,-0.448 -0.74667,-1.418667 z m 32.48002,-30.762681 q 0,-2.016001 -1.71734,-9.706672 -1.64267,-7.765337 -2.464,-7.765337 -0.59733,0 -3.88267,6.645337 -3.21067,6.570669 -5.22667,11.946672 l -0.896,2.314668 5.89867,-0.448 q 5.45067,-0.448001 6.86934,-0.896001 1.41867,-0.522667 1.41867,-2.090667 z m 69.29061,3.882668 q 0,-2.240001 3.06134,-17.546675 3.06133,-15.306674 3.73333,-15.306674 1.94134,0 2.76267,0.821334 0.82133,0.746667 0.82133,2.912001 0,2.464001 -1.792,11.424006 l -3.88267,19.413342 q -1.04533,5.301336 -1.94133,9.109338 -0.82133,3.733335 -1.19467,4.928002 -0.29866,1.120001 -0.448,2.090668 -0.14933,0.970667 -0.14933,2.240001 0,1.792001 -0.74667,2.762668 -0.672,0.970667 -1.792,0.970667 -1.64267,0 -2.83733,-1.642667 -1.19467,-1.717335 -1.94134,-3.360002 -0.74666,-1.717334 -1.344,-1.717334 -0.74667,0 -1.41867,-3.136002 -0.74666,-3.509335 -3.584,-9.258671 -2.83733,-5.749336 -4.77867,-7.541337 l -2.24,-2.165334 -2.24,5.600003 q -4.33067,11.125338 -7.84,22.250677 -1.49334,4.629335 -2.09067,5.674669 -0.59733,1.045334 -2.16533,1.045334 -1.344,0 -2.01601,-0.896 -0.59733,-0.821334 -1.19466,-3.658669 -1.94134,-8.661337 -3.88267,-18.741342 -1.86667,-10.154671 -2.912,-14.186673 -1.04534,-3.584002 -1.04534,-5.89867 0,-1.418667 -0.37333,-2.090668 -0.29867,-0.746667 -0.74667,-1.045333 -0.37333,-0.373334 -0.74666,-2.240001 -0.29867,-1.866668 -0.29867,-5.301336 0,-3.136002 1.26933,-3.136002 1.94134,0 3.95734,6.421337 2.016,6.421336 5.45067,23.594677 2.53867,12.46934 3.43467,12.46934 0.52266,0 2.38933,-5.226669 1.86667,-5.301336 3.95734,-11.424006 2.16533,-6.197336 2.912,-7.616003 1.19466,-2.314668 3.36,-2.314668 3.43467,0 7.69067,5.376002 4.256,5.376003 7.01867,13.514673 1.568,4.853336 2.53867,4.853336 0.82133,0 2.016,-4.554669 1.26933,-4.554669 1.26933,-7.46667 z M 63.723079,158.19161 q 0,6.048 -1.568001,12.544 -1.493334,6.42134 -3.658668,11.05068 -2.090668,4.62933 -4.405336,7.69067 -2.240001,2.98666 -3.733335,2.98666 -1.194667,0 -1.568001,1.19467 -0.224,0.672 -3.285334,1.19467 -2.986669,0.59733 -6.272003,0.59733 -2.016001,0 -3.210669,-0.52266 -1.194667,-0.448 -3.136001,-1.94134 -3.957335,-3.136 -6.944003,-9.78134 -2.986669,-6.72 -2.986669,-12.61867 0,-6.79467 3.061335,-13.51467 3.061335,-6.79467 7.765337,-10.15467 4.480002,-3.13601 5.973336,-3.13601 0.970668,0 3.061335,-2.016 2.090668,-2.016 3.360002,-2.016 1.418667,0 2.314668,-0.97066 0.970667,-1.04534 2.762668,-1.04534 5.600002,0 9.034671,5.6 3.434668,5.52534 3.434668,14.85868 z m -4.106669,-1.41867 q 0,-2.16533 -2.165334,-6.42134 -2.090668,-4.256 -2.912001,-4.77866 -0.896001,-0.59734 -2.837335,-0.59734 -3.285335,0 -8.512004,1.71734 -11.349339,3.584 -13.888007,18.89067 -0.746667,4.62934 -0.746667,6.048 0,2.16534 1.792001,7.46667 4.032002,11.27468 10.976005,11.27468 1.941334,0 4.181336,-0.896 2.613334,-0.97067 6.346669,-6.49601 3.808002,-5.6 4.405336,-9.25867 0.373333,-3.06133 1.866667,-9.25867 1.493334,-6.19734 1.493334,-7.69067 z m 31.135922,-20.38401 q 2.538668,0 4.704003,-0.896 2.240001,-0.896 6.272005,-0.896 3.21067,0 4.40533,0.52267 1.26934,0.448 1.26934,1.86666 0,1.26934 -1.71734,1.86667 -1.64266,0.52267 -8.064001,1.71734 -1.568001,0.29866 -2.538668,0.52266 -0.896,0.14934 -2.613335,0.52267 -1.642667,0.29867 -3.210668,0.59733 l -7.541337,1.568 v 5.97334 q 0,6.048 0.522667,9.184 l 0.522667,3.28534 4.778669,-0.52267 q 4.256002,-0.59733 8.736004,-0.59733 5.749332,0 5.749332,1.12 0,1.04533 -3.509331,2.38933 -3.509335,1.344 -8.810671,2.31467 l -6.272003,1.12 0.597334,11.87201 q 0.224,4.48 0.224,7.168 0,3.28534 -0.448,4.48 -0.373334,1.19467 -1.418667,1.19467 -0.672001,0 -1.493334,-0.29867 -1.120001,-0.29866 -1.418668,-1.41866 -0.298667,-1.12 -0.298667,-4.70401 0,-3.43466 -1.344,-13.29067 -1.269334,-9.93067 -1.269334,-20.16001 V 140.2716 l 5.450669,-1.94134 q 5.525336,-1.94133 8.736004,-1.94133 z m -55.8506,109.52115 q -2.464001,0 -5.152003,0.59733 -2.688001,0.59733 -3.509335,0.59733 -1.866667,0 -3.210668,-0.672 -1.269334,-0.672 -1.269334,-1.71733 0,-1.26934 1.642668,-1.71734 1.717334,-0.52266 8.960004,-1.64266 14.70934,-2.24 28.149347,-4.85334 8.288004,-1.568 10.752005,-1.568 2.314668,0 4.704002,0.97067 2.389335,0.97066 2.389335,2.16533 0,1.12 -1.941335,1.94134 -1.941334,0.74666 -5.152002,0.74666 -5.002669,0 -10.677339,1.344 l -5.749336,1.344 1.120001,6.27201 q 0.821334,5.824 1.941334,22.32534 1.194667,16.42668 1.418667,18.36801 0.224001,1.94133 0.224001,2.912 0,2.31467 -2.016001,2.31467 -1.941335,0 -2.912002,-4.85334 -0.896,-4.85333 -1.717334,-19.04001 -1.493334,-24.19201 -3.882668,-26.73067 -0.597334,-0.59734 -1.941335,-0.59734 -0.597333,0 -5.152002,0.74667 -4.480002,0.74667 -7.01867,0.74667 z m 90.197288,40.99202 q 0,1.04533 -0.672,1.71733 -0.59733,0.59733 -1.12,0.74667 -0.448,0.0747 -0.82133,0.0747 -1.79201,0 -2.53867,-3.65867 -0.74667,-3.73333 -0.97067,-13.51467 -0.29867,-14.11201 -1.12,-14.11201 -0.59733,0 -2.688,0.97067 -2.09067,0.97067 -6.34667,2.912 -4.256,1.94134 -8.58667,3.58401 l -6.272005,2.38933 0.448,13.51467 q 0.149334,5.22667 0.149334,6.79467 0,8.36267 -1.717334,8.36267 -0.373334,0 -1.194668,-0.52266 -1.568,-1.12 -2.314667,-7.61601 -0.746667,-6.496 -1.642668,-26.58134 -0.597333,-13.66401 -0.597333,-21.65335 0,-6.496 0.597333,-7.91467 0.448,-1.12 1.120001,-1.86666 0.672,-0.82134 1.194667,-0.82134 1.194667,0 2.389334,15.60534 1.194668,15.53068 2.389335,15.53068 0.149333,0 1.12,-0.37334 0.970668,-0.448 4.853341,-1.86666 3.95733,-1.41867 9.93067,-3.28534 5.152,-1.71733 5.97333,-2.53867 0.97067,-0.82133 1.64267,-6.64533 0.59733,-5.37601 1.19467,-7.16801 0.59733,-1.86667 1.86666,-1.86667 1.64267,0 2.16534,4.70401 0.59733,4.704 0.672,20.01067 0.0747,5.89867 0.14933,10.45334 0.14934,4.48 0.224,6.86934 0.14934,2.31467 0.224,3.95733 0.0747,1.568 0.14934,2.09067 0.0747,0.52267 0.0747,0.97067 0.0747,0.37333 0.0747,0.74667 z m 10.07989,-41.21602 q 0,-2.24001 0.59733,-3.73334 0.672,-1.568 1.26934,-2.016 0.59733,-0.52267 1.04533,-0.52267 0.82134,0 2.688,-0.97066 1.86667,-1.04534 4.032,-2.24001 2.24001,-1.19466 6.27201,-2.16533 4.032,-1.04533 8.58667,-1.04533 6.79467,0 6.79467,2.16533 0,1.04533 -7.168,2.31467 -5.82401,0.97067 -10.97601,2.83733 -5.152,1.792 -6.944,3.50934 -1.12,1.12 -1.12,3.21067 0,0.448 0.0747,1.792 0.14934,1.26933 0.448,4.10667 0.29867,2.83733 0.52267,5.6 0.448,6.19733 1.26933,6.19733 0.224,0 0.52267,-0.224 1.26933,-0.74666 8.512,-2.464 7.31734,-1.71733 9.18401,-1.71733 2.24,0 2.24,1.86667 0,1.344 -2.53867,2.38933 -2.53867,1.04534 -10.15467,2.98667 -5.6,1.344 -6.944,2.016 -1.26934,0.672 -1.26934,2.09067 0,0.0747 0.14934,9.33334 l 0.224,6.42133 h 3.808 q 3.36,0 8.512,-1.344 5.22667,-1.41867 8.66134,-3.28533 2.31467,-1.26934 3.136,-1.26934 0.74667,0 1.49334,0.896 0.74666,0.82134 0.74666,1.64267 0,2.61334 -8.13867,5.824 -8.064,3.136 -15.82934,3.136 -4.704,0 -5.67467,-1.41866 -0.82133,-0.97067 -1.26933,-5.89867 -0.448,-5.00267 -1.04534,-14.85868 -0.52266,-9.93067 -1.19466,-16.94934 -0.52267,-5.45067 -0.52267,-8.21333 z m 42.55991,0.0747 q 0,-1.26933 3.36,-5.07733 3.36,-3.80801 4.256,-3.80801 2.83734,0 12.39468,1.19467 9.55733,1.19467 11.424,1.792 5.00267,1.41867 5.00267,6.79467 0,2.53867 -1.26933,5.22667 -1.19467,2.61334 -2.688,4.40534 -1.49334,1.71733 -2.76267,3.21067 -1.19467,1.49333 -1.19467,1.86666 0,0.52267 -4.33067,3.36 -4.256,2.76267 -7.54133,4.48001 -2.68801,1.49333 -2.68801,1.86666 0,0.14934 2.76267,1.12 2.83734,0.89601 6.79467,2.46401 3.95734,1.568 6.12267,3.06133 3.43467,2.38934 4.18134,2.38934 1.04533,0.0747 3.36,2.53866 2.38933,2.38934 2.38933,3.43467 0,1.86667 -1.344,1.86667 -1.19467,0 -3.808,-1.344 -2.53867,-1.41867 -7.01867,-3.808 -4.48,-2.464 -8.81067,-4.18134 l -5.824,-2.31467 0.29866,8.73601 q 0.0747,1.94133 0.0747,5.6 0,1.792 -0.37333,2.53867 -0.37334,0.82133 -1.64267,0.82133 -2.83734,0 -2.83734,-9.10934 0,-9.55733 -3.06133,-10.976 -2.24,-0.97067 -2.24,-2.688 0,-1.568 2.16533,-2.61334 l 2.464,-1.12 -0.59733,-8.512 q -0.448,-6.79467 -0.97067,-9.40801 -0.448,-2.688 -1.26933,-2.688 -0.224,0 -0.896,0.52267 -0.672,0.52267 -1.64267,0.52267 -0.896,0 -1.568,-0.59734 -0.672,-0.59733 -0.672,-1.568 z m 32.03202,0.37334 q 0,-0.29867 -0.224,-0.448 -0.224,-0.224 -1.49334,-0.59734 -1.26933,-0.448 -3.808,-1.19467 -5.07734,-1.41866 -10.304,-1.41866 h -5.37601 l 0.52267,4.032 q 0.224,1.49333 0.672,6.34667 0.448,4.77867 0.82133,8.512 0.37334,3.65867 0.52267,3.65867 1.04533,0 5.52534,-2.464 4.48,-2.464 6.272,-4.10667 1.94133,-1.71733 4.40533,-6.19733 2.46401,-4.48001 2.46401,-6.12267 z m 19.56266,51.37069 q -0.97067,0 -1.568,-1.344 -0.52267,-1.344 -0.89601,-5.82401 -0.37333,-4.48 -0.52266,-12.02134 -0.0747,-7.616 -0.0747,-20.98134 0,-22.92268 0.896,-24.04268 1.04534,-1.41866 2.76267,-1.41866 0.97067,0 1.86667,1.94133 0.97066,1.94133 2.464,7.09334 2.24,8.13867 5.152,14.70934 2.98667,6.496 4.256,6.496 1.26934,0 5.37601,-6.944 4.10666,-7.01867 9.408,-18.29335 0.97067,-2.09066 2.53867,-3.36 1.568,-1.26933 3.06133,-1.26933 1.04534,0 1.64267,0.59733 1.64267,1.49334 2.16533,6.72001 0.52267,5.152 0.672,21.80267 0.0747,10.08001 0.448,16.42668 0.37334,6.34667 0.74667,8.064 0.448,1.64267 0.74667,2.76267 0.29867,1.12 0.29867,2.16533 0,2.31467 -2.09067,2.31467 -1.19467,0 -2.31467,-0.74667 -1.12,-0.74666 -1.568,-1.94133 -0.448,-1.19467 -0.896,-13.21601 -0.448,-12.02134 -0.896,-23.29601 -0.448,-11.27467 -0.97067,-11.27467 -0.672,0 -2.912,5.00267 -2.688,6.12267 -6.944,13.51467 -1.568,2.76267 -4.77867,5.00267 -3.136,2.16534 -5.52534,2.16534 -0.59733,0 -2.16533,-1.86667 -1.568,-1.94134 -3.136,-4.62934 l -3.80801,-6.496 v 19.26401 q -0.0747,14.18667 -0.74666,18.51734 -0.59734,4.40534 -2.688,4.40534 z m 91.24264,-40.61869 q 0,6.048 -1.568,12.54401 -1.49334,6.42133 -3.65867,11.05067 -2.09067,4.62933 -4.40534,7.69067 -2.24,2.98667 -3.73333,2.98667 -1.19467,0 -1.568,1.19466 -0.224,0.672 -3.28534,1.19467 -2.98667,0.59734 -6.272,0.59734 -2.016,0 -3.21067,-0.52267 -1.19467,-0.448 -3.136,-1.94134 -3.95734,-3.136 -6.944,-9.78133 -2.98667,-6.72001 -2.98667,-12.61868 0,-6.79467 3.06133,-13.51467 3.06134,-6.79467 7.76534,-10.15467 4.48,-3.136 5.97334,-3.136 0.97066,0 3.06133,-2.016 2.09067,-2.016 3.36,-2.016 1.41867,0 2.31467,-0.97067 0.97067,-1.04534 2.76267,-1.04534 5.6,0 9.03467,5.60001 3.43467,5.52533 3.43467,14.85867 z m -4.10667,-1.41867 q 0,-2.16533 -2.16534,-6.42133 -2.09066,-4.256 -2.912,-4.77867 -0.896,-0.59734 -2.83733,-0.59734 -3.28534,0 -8.51201,1.71734 -11.34934,3.584 -13.888,18.89067 -0.74667,4.62934 -0.74667,6.04801 0,2.16533 1.792,7.46667 4.032,11.27467 10.97601,11.27467 1.94133,0 4.18133,-0.896 2.61334,-0.97067 6.34667,-6.496 3.808,-5.60001 4.40534,-9.25867 0.37333,-3.06134 1.86666,-9.25868 1.49334,-6.19733 1.49334,-7.69067 z m 12.02126,-13.36534 q 0,-1.04533 0.97067,-2.53866 0.97067,-1.49334 1.792,-1.49334 0.97067,0 2.24,-1.792 1.19467,-1.792 7.31734,-2.464 7.84,-0.74667 10.304,-0.74667 3.13601,0 7.69067,0.82134 13.06668,2.24 18.36801,6.64533 5.30134,4.33067 5.30134,13.14134 0,7.84001 -2.688,14.85868 -2.61334,7.01867 -6.79467,11.72267 -4.18134,4.704 -8.81067,7.84 -4.62934,3.06134 -9.03467,4.10667 -1.86667,0.448 -2.76267,1.41867 -0.896,1.04533 -0.97067,1.94133 -0.0747,0.896 -0.74667,1.568 -0.59733,0.74667 -2.016,0.74667 -2.31466,0 -2.31466,-0.896 0,-0.52267 -0.59734,-0.896 -0.59733,-0.37333 -1.344,-0.59733 -0.672,-0.224 -1.26933,-0.97067 -0.59734,-0.74667 -0.59734,-1.94134 0,-2.016 1.41867,-2.53866 1.41867,-0.52267 1.41867,-6.34667 0,-3.06134 -0.37334,-6.19734 -0.37333,-3.21067 -1.26933,-9.632 -0.82133,-6.49601 -1.568,-14.33601 l -1.19467,-12.91734 -2.688,0.224 q -1.71733,0.14933 -3.28533,1.26933 -1.568,1.04534 -2.53867,2.016 -0.97067,0.97067 -1.49334,0.97067 -0.52266,0 -1.49333,-1.04533 -0.97067,-1.12 -0.97067,-1.94134 z m 17.84535,0.224 q 0,2.31467 2.09066,17.54668 2.16534,15.23201 2.16534,19.86134 0,1.49334 -0.14934,2.98667 l -0.59733,3.808 h 4.032 q 6.64534,0 15.08268,-9.408 4.77867,-5.37601 6.42133,-10.82667 1.71734,-5.45067 1.71734,-13.29068 0,-3.28533 -0.52267,-4.55467 -0.448,-1.26933 -2.16533,-3.21066 -1.71734,-1.86667 -3.88267,-2.76267 -2.16534,-0.896 -7.09334,-1.86667 -8.96,-1.49333 -13.51467,-1.49333 -2.09067,0 -2.83734,0.52266 -0.74666,0.52267 -0.74666,2.688 z m 87.50934,-4.33066 q 0,-4.33067 1.568,-4.33067 0.448,0 2.38933,1.04533 1.568,0.97067 1.568,2.53867 0,4.704 -4.62933,13.96267 -4.62934,9.18401 -7.69067,12.91734 -1.26934,1.568 -2.016,2.76267 -0.672,1.12 -1.19467,2.31467 -0.448,1.12 -2.09067,5.22667 -1.64267,4.10666 -3.584,8.66133 l -6.048,14.48534 q -1.04534,2.38934 -2.68801,2.38934 -0.97066,0 -1.86666,-0.896 -0.82134,-0.896 -0.82134,-2.016 0,-3.06134 8.28801,-20.53335 l 4.40533,-9.408 -12.32,-12.54401 q -8.51201,-8.66133 -11.20001,-11.72267 -2.61333,-3.06133 -2.61333,-4.48 0,-0.672 0.448,-1.26934 0.448,-0.672 1.12,-0.672 1.19466,0 4.40533,2.91201 3.21067,2.83733 11.87201,11.57333 9.33334,9.18401 10.60267,9.18401 0.82133,0 1.568,-0.59733 0.82133,-0.59734 1.71734,-2.16534 0.97066,-1.568 1.792,-3.21067 0.896,-1.71733 2.53866,-4.928 1.71734,-3.21067 3.28534,-6.048 1.19467,-2.38934 1.19467,-5.152 z m 21.35463,30.76268 q 0,3.808 0.29867,6.64533 0.29867,2.83734 0.29867,3.584 0,3.80801 -1.04534,7.31734 -0.97066,3.43467 -2.16533,3.43467 -1.792,-0.0747 -2.53867,-0.672 -0.672,-0.59733 -1.04533,-2.98667 -0.37334,-2.464 -0.37334,-7.98934 0,-9.55733 0.52267,-25.53601 0.52267,-16.05334 0.97067,-17.17334 0.82133,-1.86667 3.06133,-1.86667 1.26934,0 2.53867,0.82134 0.97067,0.59733 5.52534,7.168 4.62933,6.496 4.62933,7.24267 0,0.448 1.344,2.53867 1.344,2.016 4.62934,7.69067 3.36,5.6 6.944,12.69334 7.76534,15.30667 10.15467,15.30667 0.29867,0 0.52267,-0.14933 0.224,-0.14933 0.59733,-1.19467 0.37334,-1.04533 0.672,-2.912 0.29867,-1.94133 0.59734,-5.74934 0.37333,-3.88266 0.672,-9.33333 1.344,-21.28001 2.24,-24.93868 0.74667,-3.28534 2.53867,-3.73334 0.448,-0.0747 1.12,-0.0747 1.26933,0 1.792,0.97066 0.59733,0.97067 0.59733,3.36 0,1.64267 -0.37333,5.22667 -0.37334,3.58401 -1.19467,11.12534 -0.74667,7.54134 -1.41867,16.05334 -0.82133,11.34934 -1.86666,14.78401 -0.97067,3.36 -3.73334,3.36 -4.85333,0 -8.736,-3.88267 -3.88267,-3.88267 -7.98934,-12.24534 -2.016,-4.032 -3.584,-6.86933 -1.568,-2.912 -2.09067,-3.73334 -0.52267,-0.896 -0.896,-1.71733 -0.37333,-0.896 -0.74667,-2.31467 -0.52266,-2.31467 -5.30133,-9.632 -4.77867,-7.39201 -4.85334,-7.61601 -0.0747,-0.14933 -0.224,-0.14933 -0.74667,0 -1.41867,7.91467 -0.672,7.84 -0.672,15.23201 z m 54.28259,23.89334 q 0,-1.12 1.568,-3.36 1.568,-2.31467 1.568,-3.36 0,-1.41867 1.04534,-1.792 0.82133,-0.29867 2.16533,-4.032 1.41867,-3.73334 2.464,-5.00267 1.04533,-1.19467 2.31467,-4.03201 1.26933,-2.83733 4.928,-12.39467 2.31467,-5.97333 6.42134,-14.41067 4.10667,-8.43734 5.07733,-9.10934 0.896,-0.52267 1.19467,-0.52267 0.52267,0 1.49333,0.672 0.82134,0.59734 3.21067,8.43734 2.464,7.84001 2.464,10.08001 0.0747,1.49333 1.41867,6.79467 1.344,5.22667 1.86667,8.288 0.448,3.06133 2.31467,9.70667 1.94133,6.57067 1.94133,8.13867 0,1.568 -1.04533,1.568 -0.82134,0 -2.31467,-0.82133 -0.672,-0.37333 -1.12,-0.82133 -0.448,-0.44801 -0.74667,-0.97067 -0.224,-0.52267 -0.52267,-1.64267 -0.29866,-1.12 -0.52266,-2.16533 -0.224,-1.04534 -0.74667,-3.36001 -0.448,-2.31466 -0.97067,-4.48 l -1.41866,-5.89867 -3.65867,0.448 q -4.032,0.59734 -8.88534,0.97067 l -5.22667,0.448 -2.16533,4.10667 q -6.04801,11.27467 -8.13867,16.35201 -1.71734,4.032 -3.65867,4.032 -0.82134,0 -1.568,-0.448 -0.74667,-0.448 -0.74667,-1.41867 z m 32.48002,-30.76268 q 0,-2.016 -1.71734,-9.70667 -1.64267,-7.76534 -2.464,-7.76534 -0.59733,0 -3.88267,6.64534 -3.21067,6.57067 -5.22667,11.94667 l -0.896,2.31467 5.89867,-0.448 q 5.45067,-0.448 6.86934,-0.896 1.41867,-0.52267 1.41867,-2.09067 z m 25.90929,35.61602 q -0.97067,0 -1.568,-1.344 -0.52267,-1.344 -0.896,-5.82401 -0.37334,-4.48 -0.52267,-12.02134 -0.0747,-7.616 -0.0747,-20.98134 0,-22.92268 0.896,-24.04268 1.04534,-1.41866 2.76267,-1.41866 0.97067,0 1.86667,1.94133 0.97067,1.94133 2.464,7.09334 2.24,8.13867 5.152,14.70934 2.98667,6.496 4.256,6.496 1.26934,0 5.37601,-6.944 4.10667,-7.01867 9.408,-18.29335 0.97067,-2.09066 2.53867,-3.36 1.568,-1.26933 3.06133,-1.26933 1.04534,0 1.64267,0.59733 1.64267,1.49334 2.16534,6.72001 0.52266,5.152 0.672,21.80267 0.0747,10.08001 0.448,16.42668 0.37333,6.34667 0.74666,8.064 0.448,1.64267 0.74667,2.76267 0.29867,1.12 0.29867,2.16533 0,2.31467 -2.09067,2.31467 -1.19467,0 -2.31467,-0.74667 -1.12,-0.74666 -1.568,-1.94133 -0.448,-1.19467 -0.896,-13.21601 -0.448,-12.02134 -0.896,-23.29601 -0.448,-11.27467 -0.97067,-11.27467 -0.672,0 -2.912,5.00267 -2.688,6.12267 -6.944,13.51467 -1.568,2.76267 -4.77867,5.00267 -3.136,2.16534 -5.52534,2.16534 -0.59733,0 -2.16533,-1.86667 -1.568,-1.94134 -3.136,-4.62934 l -3.808,-6.496 v 19.26401 q -0.0747,14.18667 -0.74667,18.51734 -0.59733,4.40534 -2.688,4.40534 z m 75.03993,-14.03734 q 0.0747,0 0.448,-0.224 0.37334,-0.29867 0.97067,-0.59734 0.672,-0.29866 1.41867,-0.29866 1.19467,0 2.016,0.672 0.896,0.59733 0.896,1.64266 0,1.64267 -2.464,3.13601 -2.464,1.41866 -9.33334,4.032 -4.48,1.71733 -6.42134,1.71733 -1.19466,0 -3.21066,-0.59733 -2.16534,-0.59734 -2.98667,-1.26934 -0.82134,-0.672 -0.82134,-1.71733 0,-1.12 0.59734,-1.49333 0.59733,-0.37334 2.31467,-0.37334 2.61333,0 6.64533,-1.71733 l 3.73334,-1.71734 -0.672,-13.96267 q -0.672,-13.96267 -0.672,-22.10134 v -7.98934 l -2.16534,0.59733 q -3.65867,1.04534 -7.09333,1.04534 -4.33067,0 -4.33067,-1.64267 0,-0.97067 2.61333,-2.09067 2.61334,-1.19467 6.64534,-2.464 4.10667,-1.26933 5.22667,-1.71733 0.82133,-0.37334 4.85333,-0.37334 5.15201,0 6.57067,0.52267 0.52267,0.224 0.97067,0.97067 0.448,0.74666 0.448,1.41866 0,1.34401 -1.26933,2.01601 -1.26934,0.59733 -4.92801,1.04533 l -2.24,0.29867 0.14934,12.992 q 0.52266,30.24002 2.09066,30.24002 z m 63.31736,-14.18668 q 0,0.896 -1.26933,3.36001 -1.19467,2.464 -3.58401,5.67466 -2.31466,3.21067 -5.22667,6.19734 -2.83733,2.912 -6.64533,4.928 -3.808,2.016 -7.46667,2.016 -9.03467,0 -14.63468,-11.49867 -0.74666,-1.49333 -0.74666,-10.15467 0,-15.60534 1.49333,-20.83201 1.86667,-6.86934 9.18401,-12.02134 7.31733,-5.22667 13.888,-5.22667 3.43467,0 6.272,2.24 2.91201,2.16534 2.91201,4.85334 0,0.97067 -1.12,0.97067 -0.82134,0 -1.71734,-0.52267 -0.896,-0.52267 -1.344,-1.344 -0.74667,-1.64267 -2.31467,-1.64267 -3.88267,0 -9.408,2.61334 -5.45067,2.61333 -8.36267,5.824 -2.464,2.688 -3.73334,8.288 -1.26933,5.60001 -1.26933,16.94934 0,5.37601 1.41867,8.73601 1.41866,3.36 4.10666,5.45067 2.68801,2.09066 5.52534,2.09066 1.94134,0 5.45067,-1.64266 3.50934,-1.64267 4.928,-3.21067 l 3.808,-3.808 q 1.79201,-1.71734 3.73334,-4.40534 2.016,-2.76267 3.21067,-4.40533 1.26933,-1.64267 2.09067,-1.64267 0.82133,0 0.82133,2.16533 z m 18.7413,8.88534 q 0,1.49334 -1.12,2.688 -1.12,1.12 -1.12,1.86667 0,0.82133 0.52267,1.94133 0.74667,1.64267 1.86667,2.01601 1.19466,0.37333 5.74933,0.37333 3.88267,0 5.824,-0.448 1.94134,-0.448 3.73334,-1.792 2.912,-2.09067 3.584,-3.28534 0.74667,-1.26933 0.74667,-4.256 0,-2.24 -0.82134,-3.136 -0.82133,-0.97067 -4.40533,-2.61334 -5.152,-2.38933 -6.64534,-2.38933 -3.21067,0 -9.856,-5.6 -6.57067,-5.60001 -6.57067,-8.36267 0,-3.95734 4.032,-9.03467 4.032,-5.15201 9.03467,-7.54134 2.53867,-1.26934 9.63201,-1.26934 3.136,0 4.704,0.44801 1.568,0.448 3.36,1.94133 1.26933,1.04533 2.24,2.464 0.97067,1.344 0.97067,2.09067 0,1.792 -0.59734,1.792 -0.59733,0 -1.568,-0.74667 -0.97066,-0.74666 -2.016,-1.568 -1.04533,-0.896 -2.98667,-1.64267 -1.94133,-0.74666 -4.256,-0.74666 -6.272,0 -11.49867,4.55467 -5.152,4.55466 -5.152,9.856 0,4.33067 15.38134,9.25867 12.096,3.808 12.096,11.87201 0,1.64266 -0.59733,3.808 -1.71733,5.824 -5.824,8.064 -4.10667,2.24 -14.33601,2.912 l -6.72,0.448 -2.016,-4.18133 q -1.568,-3.06134 -1.568,-6.12267 0,-2.53867 1.19466,-4.10667 1.19467,-1.568 3.36001,-1.568 1.64266,0 1.64266,2.016 z M 47.520405,382.16192 q 0.07467,0 0.448,-0.224 0.373333,-0.29867 0.970667,-0.59734 0.672,-0.29867 1.418667,-0.29867 1.194667,0 2.016001,0.67201 0.896001,0.59733 0.896001,1.64266 0,1.64267 -2.464002,3.136 -2.464001,1.41867 -9.333337,4.03201 -4.480003,1.71733 -6.421337,1.71733 -1.194667,0 -3.210668,-0.59733 -2.165334,-0.59734 -2.986668,-1.26934 -0.821334,-0.672 -0.821334,-1.71733 0,-1.12 0.597334,-1.49334 0.597333,-0.37333 2.314668,-0.37333 2.613334,0 6.645336,-1.71733 l 3.733335,-1.71734 -0.672,-13.96267 q -0.672,-13.96267 -0.672,-22.10134 v -7.98934 l -2.165335,0.59733 q -3.658668,1.04534 -7.093337,1.04534 -4.330668,0 -4.330668,-1.64267 0,-0.97067 2.613334,-2.09067 2.613335,-1.19467 6.645337,-2.464 4.106668,-1.26933 5.226669,-1.71733 0.821334,-0.37334 4.853336,-0.37334 5.152002,0 6.570669,0.52267 0.522667,0.224 0.970668,0.97067 0.448,0.74666 0.448,1.41866 0,1.344 -1.269334,2.016 -1.269334,0.59734 -4.928002,1.04534 l -2.240002,0.29866 0.149334,12.99201 q 0.522667,30.24002 2.090668,30.24002 z m 27.776004,-5.30134 q 0,1.49333 -1.12,2.688 -1.120001,1.12 -1.120001,1.86667 0,0.82133 0.522667,1.94133 0.746667,1.64267 1.866668,2.016 1.194667,0.37334 5.749336,0.37334 3.882668,0 5.824002,-0.448 1.941335,-0.448 3.733336,-1.792 2.912001,-2.09067 3.584001,-3.28534 0.746667,-1.26933 0.746667,-4.256 0,-2.24 -0.821333,-3.136 -0.821334,-0.97067 -4.405336,-2.61334 -5.152002,-2.38933 -6.645336,-2.38933 -3.210669,0 -9.856005,-5.6 -6.57067,-5.60001 -6.57067,-8.36267 0,-3.95734 4.032002,-9.03468 4.032002,-5.152 9.034671,-7.54133 2.538668,-1.26934 9.632005,-1.26934 3.136001,0 4.704002,0.448 1.568001,0.448 3.360002,1.94134 1.269333,1.04533 2.240001,2.464 0.970662,1.344 0.970662,2.09067 0,1.792 -0.59733,1.792 -0.597333,0 -1.568,-0.74667 -0.970667,-0.74667 -2.016001,-1.568 -1.045333,-0.896 -2.986668,-1.64267 -1.941334,-0.74666 -4.256002,-0.74666 -6.272003,0 -11.498672,4.55466 -5.152002,4.55467 -5.152002,9.85601 0,4.33067 15.38134,9.25867 12.096005,3.808 12.096005,11.87201 0,1.64266 -0.597333,3.808 -1.717334,5.824 -5.824002,8.064 -4.106669,2.24 -14.336007,2.912 l -6.720003,0.448 -2.016001,-4.18133 q -1.568001,-3.06134 -1.568001,-6.12267 0,-2.53867 1.194667,-4.10667 1.194667,-1.568 3.360002,-1.568 1.642667,0 1.642667,2.016 z M 177.21631,333.77789 q 2.53867,0 4.704,-0.896 2.24,-0.896 6.27201,-0.896 3.21066,0 4.40533,0.52267 1.26933,0.448 1.26933,1.86667 0,1.26933 -1.71733,1.86666 -1.64267,0.52267 -8.064,1.71734 -1.568,0.29866 -2.53867,0.52266 -0.896,0.14934 -2.61334,0.52267 -1.64266,0.29867 -3.21066,0.59734 l -7.54134,1.568 v 5.97333 q 0,6.04801 0.52267,9.18401 l 0.52266,3.28533 4.77867,-0.52267 q 4.256,-0.59733 8.73601,-0.59733 5.74933,0 5.74933,1.12 0,1.04534 -3.50933,2.38934 -3.50934,1.344 -8.81067,2.31466 l -6.27201,1.12 0.59734,11.87201 q 0.224,4.48 0.224,7.168 0,3.28534 -0.448,4.48001 -0.37334,1.19466 -1.41867,1.19466 -0.672,0 -1.49333,-0.29866 -1.12001,-0.29867 -1.41867,-1.41867 -0.29867,-1.12 -0.29867,-4.704 0,-3.43467 -1.344,-13.29068 -1.26933,-9.93067 -1.26933,-20.16001 v -12.61867 l 5.45067,-1.94133 q 5.52533,-1.94134 8.736,-1.94134 z m 26.58129,57.56803 q 0,-1.12 1.568,-3.36 1.568,-2.31467 1.568,-3.36 0,-1.41867 1.04533,-1.792 0.82134,-0.29867 2.16534,-4.03201 1.41866,-3.73333 2.464,-5.00267 1.04533,-1.19466 2.31467,-4.032 1.26933,-2.83733 4.928,-12.39467 2.31467,-5.97334 6.42133,-14.41067 4.10667,-8.43734 5.07734,-9.10934 0.896,-0.52267 1.19467,-0.52267 0.52266,0 1.49333,0.672 0.82133,0.59734 3.21067,8.43734 2.464,7.84 2.464,10.08 0.0747,1.49334 1.41867,6.79467 1.344,5.22667 1.86667,8.28801 0.448,3.06133 2.31466,9.70667 1.94134,6.57067 1.94134,8.13867 0,1.568 -1.04534,1.568 -0.82133,0 -2.31466,-0.82133 -0.672,-0.37334 -1.12001,-0.82134 -0.448,-0.448 -0.74666,-0.97066 -0.224,-0.52267 -0.52267,-1.64267 -0.29867,-1.12 -0.52267,-2.16534 -0.224,-1.04533 -0.74666,-3.36 -0.448,-2.31466 -0.97067,-4.48 l -1.41867,-5.89867 -3.65867,0.448 q -4.032,0.59734 -8.88533,0.97067 l -5.22667,0.448 -2.16534,4.10667 q -6.048,11.27467 -8.13867,16.35201 -1.71733,4.032 -3.65867,4.032 -0.82133,0 -1.568,-0.448 -0.74666,-0.448 -0.74666,-1.41867 z m 32.48001,-30.76268 q 0,-2.016 -1.71733,-9.70667 -1.64267,-7.76534 -2.464,-7.76534 -0.59734,0 -3.88267,6.64534 -3.21067,6.57067 -5.22667,11.94667 l -0.896,2.31467 5.89867,-0.448 q 5.45067,-0.448 6.86933,-0.896 1.41867,-0.52267 1.41867,-2.09067 z m 24.78928,-26.65601 q 0,-1.86667 1.12,-1.86667 1.49333,0 2.61333,2.76267 0.97067,2.464 1.94134,23.52001 1.04533,22.02667 1.71733,25.01334 0.52267,2.31467 1.94134,2.464 0.29866,0.0747 0.896,0.0747 1.94133,0 8.88533,-1.568 7.01867,-1.64267 13.21601,-3.21067 6.272,-1.64267 6.496,-1.64267 1.26934,0 2.01601,0.97067 0.82133,0.97067 0.82133,1.568 0,0.52267 -1.41867,1.86667 -2.38933,1.94133 -13.88801,4.85334 -11.49867,2.912 -18.368,2.912 -3.13601,0 -4.10667,-1.12 -1.568,-1.792 -2.24,-11.34934 -0.224,-3.95734 -0.82134,-17.84534 -0.82133,-19.71201 -0.82133,-27.40268 z m 58.68789,42.93335 q 0,1.49333 -1.12,2.688 -1.12,1.12 -1.12,1.86667 0,0.82133 0.52267,1.94133 0.74667,1.64267 1.86667,2.016 1.19466,0.37334 5.74933,0.37334 3.88267,0 5.82401,-0.448 1.94133,-0.448 3.73333,-1.792 2.912,-2.09067 3.584,-3.28534 0.74667,-1.26933 0.74667,-4.256 0,-2.24 -0.82133,-3.136 -0.82134,-0.97067 -4.40534,-2.61334 -5.152,-2.38933 -6.64534,-2.38933 -3.21066,0 -9.856,-5.6 -6.57067,-5.60001 -6.57067,-8.36267 0,-3.95734 4.032,-9.03468 4.032,-5.152 9.03467,-7.54133 2.53867,-1.26934 9.63201,-1.26934 3.136,0 4.704,0.448 1.568,0.448 3.36,1.94134 1.26933,1.04533 2.24,2.464 0.97067,1.344 0.97067,2.09067 0,1.792 -0.59733,1.792 -0.59734,0 -1.56801,-0.74667 -0.97066,-0.74667 -2.016,-1.568 -1.04533,-0.896 -2.98666,-1.64267 -1.94134,-0.74666 -4.25601,-0.74666 -6.272,0 -11.49867,4.55466 -5.152,4.55467 -5.152,9.85601 0,4.33067 15.38134,9.25867 12.09601,3.808 12.09601,11.87201 0,1.64266 -0.59734,3.808 -1.71733,5.824 -5.824,8.064 -4.10667,2.24 -14.33601,2.912 l -6.72,0.448 -2.016,-4.18133 q -1.568,-3.06134 -1.568,-6.12267 0,-2.53867 1.19466,-4.10667 1.19467,-1.568 3.36001,-1.568 1.64266,0 1.64266,2.016 z m 35.09324,-32.48002 q 0,-2.24 0.59733,-3.73333 0.672,-1.568 1.26933,-2.016 0.59734,-0.52267 1.04534,-0.52267 0.82133,0 2.688,-0.97067 1.86667,-1.04533 4.032,-2.24 2.24,-1.19466 6.272,-2.16533 4.03201,-1.04534 8.58667,-1.04534 6.79467,0 6.79467,2.16534 0,1.04533 -7.168,2.31467 -5.824,0.97066 -10.976,2.83733 -5.15201,1.792 -6.94401,3.50934 -1.12,1.12 -1.12,3.21066 0,0.44801 0.0747,1.79201 0.14933,1.26933 0.448,4.10666 0.29867,2.83734 0.52267,5.60001 0.448,6.19733 1.26933,6.19733 0.224,0 0.52267,-0.224 1.26933,-0.74666 8.512,-2.464 7.31734,-1.71733 9.184,-1.71733 2.24001,0 2.24001,1.86667 0,1.344 -2.53867,2.38933 -2.53867,1.04533 -10.15467,2.98667 -5.60001,1.344 -6.94401,2.016 -1.26933,0.672 -1.26933,2.09067 0,0.0747 0.14933,9.33333 l 0.224,6.42134 h 3.808 q 3.36001,0 8.51201,-1.344 5.22667,-1.41867 8.66134,-3.28533 2.31466,-1.26934 3.136,-1.26934 0.74666,0 1.49333,0.896 0.74667,0.82134 0.74667,1.64267 0,2.61333 -8.13867,5.824 -8.06401,3.136 -15.82934,3.136 -4.70401,0 -5.67467,-1.41866 -0.82134,-0.97067 -1.26934,-5.89867 -0.448,-5.00267 -1.04533,-14.85868 -0.52267,-9.93067 -1.19467,-16.94934 -0.52266,-5.45067 -0.52266,-8.21334 z"
       id="text3"
       transform="scale(0.26458333)"
       aria-label="THE SECOND LAW OF THERMODYNAMICS IS FALSE" />
    <text
       xml:space="preserve"
       transform="scale(0.26458333)"
       id="text4"
       style="fill:#000000;text-orientation:auto;font-size:74.66666667px;stroke-width:1.0015748;stroke:#000000;text-align:start;writing-mode:lr-tb;direction:ltr;white-space:pre;shape-inside:url(#rect4)" />
  </g>
</svg>
