<?xml version="1.0" encoding="UTF-8" standalone="no"?>
<!-- Created with Inkscape (http://www.inkscape.org/) -->

<svg
   width="210mm"
   height="297mm"
   viewBox="0 0 210 297"
   version="1.1"
   id="svg1"
   sodipodi:docname="drawing-4.svg"
   inkscape:version="1.4 (e7c3feb, 2024-10-09)"
   xmlns:inkscape="http://www.inkscape.org/namespaces/inkscape"
   xmlns:sodipodi="http://sodipodi.sourceforge.net/DTD/sodipodi-0.dtd"
   xmlns="http://www.w3.org/2000/svg"
   xmlns:svg="http://www.w3.org/2000/svg">
  <sodipodi:namedview
     id="namedview1"
     pagecolor="#ffffff"
     bordercolor="#000000"
     borderopacity="0.25"
     inkscape:showpageshadow="2"
     inkscape:pageopacity="0.0"
     inkscape:pagecheckerboard="0"
     inkscape:deskcolor="#d1d1d1"
     inkscape:document-units="mm"
     inkscape:zoom="0.30742063"
     inkscape:cx="346.43088"
     inkscape:cy="416.36763"
     inkscape:window-width="1366"
     inkscape:window-height="749"
     inkscape:window-x="0"
     inkscape:window-y="0"
     inkscape:window-maximized="1"
     inkscape:current-layer="layer1" />
  <defs
     id="defs1">
    <rect
       x="89.453982"
       y="48.793081"
       width="687.98245"
       height="1062.0627"
       id="rect1" />
  </defs>
  <g
     inkscape:label="Layer 1"
     inkscape:groupmode="layer"
     id="layer1">
    <path
       d="m 149.74112,58.002299 q 6.528,0 12.09601,-2.304 5.75999,-2.304 16.12799,-2.304 8.256,0 11.328,1.344 3.26401,1.152 3.26401,4.8 0,3.264 -4.41601,4.8 -4.224,1.344 -20.736,4.416 -4.03199,0.768 -6.528,1.344 -2.304,0.384 -6.72,1.344 -4.22399,0.768 -8.256,1.536 l -19.392,4.032 v 15.36 q 0,15.552001 1.34401,23.616001 l 1.34399,8.448 12.288,-1.344 q 10.944,-1.536 22.464,-1.536 14.784,0 14.784,2.88 0,2.688 -9.024,6.144 -9.024,3.456 -22.656,5.952 l -16.128,2.88 1.536,30.528 q 0.576,11.52 0.576,18.432 0,8.448 -1.15199,11.52 -0.96001,3.072 -3.64801,3.072 -1.728,0 -3.83999,-0.768 -2.88001,-0.768 -3.64801,-3.648 -0.768,-2.88 -0.768,-12.096 0,-8.832 -3.45599,-34.176 -3.26401,-25.536 -3.26401,-51.84 V 67.986299 l 14.016,-4.992 q 14.208,-4.992 22.464,-4.992 z M 314.09299,163.6023 q 0.96,0 0.96,1.536 0,3.456 -5.184,11.136 -4.992,7.68 -10.752,12.672 -20.16,17.856 -40.32,17.856 -7.68,0 -15.36,-3.456 -7.488,-3.648 -14.016,-10.176 -6.528,-6.528 -10.56,-17.472 -4.032,-10.944 -4.032,-24.384 0,-8.256 1.92,-14.016 3.84,-11.712 16.32,-24.768 12.672,-13.056001 23.808,-13.056001 3.072,0 9.216,0.576001 9.216,0.768 12.864,1.92 3.84,1.152 8.64,4.8 6.144,4.608 10.56,11.904 4.608,7.104 4.608,11.904 0,6.144 -4.8,9.408 -4.8,3.072 -18.624,6.144 -18.048,4.032 -35.328,4.992 l -17.856,0.96 v 7.68 q 0,14.208 13.248,26.88 9.984,9.6 20.736,9.6 8.256,0 17.472,-4.992 9.408,-5.184 15.936,-11.328 6.528,-6.144 12.48,-11.136 5.952,-5.184 8.064,-5.184 z m -30.912,-46.848 q -5.952,-5.376 -9.024,-6.72 -2.88,-1.536 -7.68,-1.536 -9.6,0 -14.4,1.92 -4.608,1.728 -9.408,7.296 -14.592,16.704 -14.592,22.272 0,2.496 4.608,2.496 17.472,0 49.536,-7.296 9.6,-2.304 9.6,-8.064 0,-2.688 -8.64,-10.368 z m 58.94374,-65.280001 q 0,-14.784 0.768,-22.464 0.768,-7.872 1.92,-9.984 1.152,-2.112 3.264,-2.112 1.92,0 3.072,1.728 1.152,1.92 6.912,88.896001 5.952,86.976 5.952,90.432 0,2.496 -1.152,3.456 -1.152,0.768 -3.84,0.768 -4.608,0 -5.952,-6.528 -1.344,-6.72 -3.84,-41.664 -3.072,-42.24 -5.952,-75.456001 -1.152,-12.48 -1.152,-27.072 z m 60.67196,43.968 q 2.688,-2.304 4.608,-2.304 4.032,0 5.76,12.864001 1.92,12.672 3.456,48.96 0.768,16.896 0.768,30.528 0,13.632 -1.152,14.976 -2.304,2.88 -5.76,2.88 -4.8,0 -5.952,-4.032 -0.96,-2.496 -2.88,-38.784 -1.92,-36.48 -1.92,-50.688 0,-11.904001 3.072,-14.400001 z m -1.152,-45.12 q 0,-2.688 2.112,-5.376 2.304,-2.688 4.032,-2.688 1.92,0 5.184,2.688 3.456,2.496 3.456,6.528 0,2.88 -1.728,4.992 -1.536,1.92 -4.224,1.92 -3.072,0 -5.952,-2.304 -2.88,-2.304 -2.88,-5.76 z m 49.34372,78.912001 q -2.304,0 -4.608,-0.96 -2.304,-0.96 -2.304,-2.496 0,-5.376 19.776,-12.864 19.968,-7.488 29.184,-9.6 2.688,-0.576 5.568,-0.576 5.184,0 10.176,1.536 4.992,1.344 6.912,3.456 2.496,2.688 2.496,9.408 0,10.176 -5.568,22.272 l -4.224,8.832 7.104,0.96 q 8.64,0.576 8.64,2.688 0,1.536 -4.224,3.456 -4.224,1.92 -9.792,2.688 -5.184,0.768 -8.256,2.496 -2.88,1.728 -7.488,6.528 -4.8,4.992 -10.56,14.592 -5.76,9.408 -5.76,11.904 0,0.768 0.96,0.768 0.576,0 17.088,-3.072 16.704,-3.264 26.496,-3.264 10.176,0 10.176,3.456 0,2.112 -3.84,3.648 -3.84,1.344 -15.552,3.648 -36.096,7.104 -43.968,7.104 -6.336,0 -6.336,-3.456 0,-3.648 6.528,-16.128 6.528,-12.48 10.368,-17.088 4.992,-6.144 4.992,-7.296 0,-1.344 -7.872,-1.344 -9.6,0 -9.6,-3.072 0,-2.304 4.416,-3.84 4.608,-1.536 11.52,-1.536 6.912,0 9.024,-0.768 2.304,-0.768 4.608,-4.032 4.608,-6.912 7.68,-15.36 3.264,-8.64 3.264,-14.592 0,-3.264 -0.96,-4.032 -0.96,-0.768 -4.8,-0.768 -9.216,0.192 -25.728,5.184 -16.512,4.992 -20.16,8.832 -2.112,2.688 -5.376,2.688 z m -292.03129,220.032 q -8.832,0 -18.816,3.648 -9.79199,3.648 -17.47199,7.488 -7.68,3.648 -11.13601,3.648 -2.30399,0 -2.30399,-1.92 0,-2.688 1.15199,-4.608 1.152,-1.92 4.22401,-3.648 3.07199,-1.728 5.76,-2.88 2.88,-1.152 9.02399,-3.264 6.144,-2.304 10.56,-4.224 10.368,-4.032 17.472,-4.032 12.672,0 19.776,13.824 3.456,6.72 4.032,12.48 0.576,5.568 0.96,31.68 0.192,14.592 0.576,24.576 0.384,9.792 0.768,12.48 l 0.384,2.496 q 0,2.688 -2.49599,5.76 -2.30401,3.072 -3.45601,3.072 -3.84,0 -5.952,-12.096 -2.112,-12.288 -2.304,-12.288 -0.576,0 -1.72799,2.112 -3.84001,6.336 -15.55201,14.016 -11.51999,7.488 -19.392,7.488 -4.8,0 -11.32799,-1.728 -6.336,-1.92 -9.21601,-4.032 -2.112,-1.728 -3.648,-6.912 -1.34399,-5.184 -1.34399,-10.56 0,-8.064 4.224,-13.824 4.416,-5.952 15.55199,-12.096 12.09601,-7.104 23.424,-7.104 4.608,0 7.68,1.536 3.072,1.536 4.608,3.264 1.536,1.536 2.496,1.536 0.768,0 3.648,2.112 2.88,1.92 3.072,1.92 0.768,0 0.768,-4.224 0,-25.728 -3.64799,-35.712 -3.45601,-9.984 -10.36801,-9.984 z m 8.64,59.52 q 0,-0.768 -0.576,-1.728 -0.384,-1.152 -1.92,-2.496 -1.344,-1.536 -3.648,-2.688 -2.112,-1.344 -5.952,-2.112 -3.84,-0.96 -8.63999,-0.96 -8.25601,0 -14.59201,2.88 -6.144,2.88 -9.216,7.296 -3.072,4.416 -4.608,8.256 -1.344,3.648 -1.344,6.528 0,4.8 0.768,6.528 0.96001,1.728 4.416,3.648 4.224,2.112 7.68,2.112 6.528,0 16.128,-4.608 9.79201,-4.8 9.79201,-6.912 0,-1.536 5.75999,-7.296 5.952,-5.952 5.952,-8.448 z m 55.29596,-105.6 q 0,-3.264 8.256,-10.56 8.448,-7.296 15.168,-7.296 4.992,0 10.368,2.688 5.568,2.496 10.752,6.144 5.184,3.456 6.912,4.224 l 4.224,1.92 4.992,-4.608 q 3.456,-2.688 5.568,-6.144 2.304,-3.648 3.456,-5.568 1.344,-1.92 3.072,-1.92 3.264,0 3.264,2.688 0,4.608 -7.296,13.056 -7.104,8.448 -13.248,8.448 -4.416,0 -16.128,-7.104 -11.712,-7.104 -16.32,-7.104 -2.88,0 -6.528,2.88 -3.648,2.688 -4.416,2.688 -0.768,0 -4.416,4.416 -3.456,4.224 -5.568,4.224 -2.112,0 -2.112,-3.072 z m -2.496,37.824 q 0,-6.528 3.84,-6.528 2.496,0 3.648,5.76 1.152,5.568 4.224,33.408 3.84,31.104 4.032,31.488 0.576,-0.384 5.568,-15.552 3.84,-12.672 6.528,-18.24 2.688,-5.76 9.6,-15.744 14.016,-19.392 21.696,-19.392 4.992,0 9.408,6.72 5.952,8.832 7.296,17.472 1.344,8.64 1.92,40.896 0.384,20.736 0.384,24.576 0,9.6 -0.768,14.016 -0.576,4.224 -1.92,5.184 -1.152,1.152 -4.224,1.344 -1.728,0 -2.304,-1.536 -0.576,-1.344 -0.576,-6.528 0,-2.88 0.384,-12.288 0.384,-9.6 0.384,-16.128 0,-16.32 -1.344,-31.872 -1.152,-15.744 -2.88,-20.16 -0.96,-2.496 -3.072,-5.184 -2.112,-2.688 -4.032,-2.688 -4.032,0 -12.864,13.824 -8.832,13.632 -15.168,28.8 -5.952,13.824 -8.064,21.312 -1.92,7.296 -3.264,19.968 -2.112,19.584 -3.072,19.584 -1.536,0 -4.416,-3.264 -2.112,-2.112 -2.88,-9.024 -0.768,-7.104 -2.112,-27.84 -1.344,-20.928 -3.648,-42.24 -2.304,-22.08 -2.304,-30.144 z m 124.0319,17.664 q 14.976,-14.016 25.152,-18.432 10.368,-4.608 26.112,-4.608 23.808,0 29.76,14.208 3.648,8.448 3.648,20.736 0,20.352 -9.024,41.28 -9.024,20.736 -22.272,28.8 -12.864,7.872 -27.072,7.872 -19.776,0 -31.68,-13.632 -8.256,-9.6 -10.752,-16.128 -2.496,-6.72 -2.496,-19.008 0,-23.232 18.624,-41.088 z m 30.912,78.912 q 16.128,0 29.184,-22.08 13.248,-22.272 13.248,-50.304 0,-4.224 -0.96,-6.336 -0.96,-2.112 -3.456,-4.224 -7.104,-5.952 -15.168,-5.952 -1.344,0 -3.072,0.384 -1.536,0.192 -5.184,0.768 -3.648,0.384 -8.64,0.96 -6.72,0.96 -10.752,3.072 -3.84,1.92 -9.792,7.488 -11.328,10.752 -16.128,19.968 -4.8,9.024 -4.8,19.776 0,15.936 9.792,26.112 9.984,10.176 25.728,10.368 z m -261.69585,143.424 q 0,-6.528 3.83999,-6.528 2.496,0 3.64801,5.76 1.15199,5.568 4.22399,33.408 3.45601,30.144 4.032,31.488 0.768,-0.768 5.56801,-15.552 4.416,-13.824 6.91199,-19.2 2.68801,-5.568 9.216,-14.784 14.016,-19.392 21.696,-19.392 4.992,0 9.408,6.72 5.952,8.832 7.296,17.472 1.344,8.64 1.92,40.896 0.38401,20.736 0.38401,24.576 0,9.6 -0.76801,14.016 -0.57599,4.224 -1.92,5.184 -1.152,1.152 -4.224,1.344 -1.728,0 -2.304,-1.536 -0.576,-1.344 -0.576,-6.528 0,-2.88 0.384,-12.288 0.384,-9.6 0.384,-16.128 0,-16.32 -1.34399,-31.872 -1.15201,-15.744 -2.88,-20.16 -0.96001,-2.496 -3.072,-5.184 -2.11201,-2.688 -4.03201,-2.688 -4.032,0 -12.864,13.824 -8.832,13.632 -15.168,28.8 -5.952,14.592 -8.064,21.888 -2.112,7.296 -3.264,19.392 -2.112,19.584 -3.07199,19.584 -1.536,0 -4.41601,-3.264 -2.11199,-2.112 -2.87999,-9.024 -0.768,-7.104 -2.112,-27.84 -1.34401,-20.928 -3.648,-42.24 -2.304,-22.08 -2.304,-30.144 z m 109.2479,36.288 q 0,-35.904 5.376,-35.904 0.96,0 1.92,0.384 1.152,0.384 2.688,2.88 1.536,2.304 1.536,6.528 0,1.92 -0.384,6.528 -0.384,4.416 -0.384,9.984 0,15.552 1.728,37.824 1.728,22.272 3.648,29.184 1.92,7.488 6.528,7.488 4.416,0 13.44,-7.872 11.136,-9.792 21.312,-30.528 10.368,-20.736 14.4,-41.472 3.84,-20.352 6.336,-21.696 1.92,-1.344 4.032,-1.344 4.608,0 4.608,5.376 0,2.688 -2.88,22.464 -2.688,19.776 -2.688,28.416 0,12.096 4.8,30.144 4.992,18.048 4.992,20.352 0,1.92 -1.536,3.072 -1.536,1.152 -2.688,1.344 -0.96,0.384 -1.536,0.384 -3.456,0 -6.912,-9.792 -3.264,-9.792 -5.952,-19.584 -2.496,-9.792 -4.416,-9.792 -0.384,0 -0.768,0.192 -0.384,0.192 -0.96,0.768 -0.384,0.384 -0.768,0.96 -0.384,0.576 -1.152,1.536 -0.576,0.96 -1.152,1.728 -0.384,0.768 -1.344,2.304 -0.96,1.536 -1.536,2.496 -8.448,13.248 -18.816,22.08 -10.176,8.832 -17.28,8.832 -8.064,0 -12.096,-3.648 -4.032,-3.456 -6.528,-12.672 -2.304,-9.216 -4.224,-29.184 -1.344,-12.672 -1.344,-29.76 z m 210.8158,26.304 q 0.96,0 0.96,1.536 0,3.456 -5.184,11.136 -4.992,7.68 -10.752,12.672 -20.16,17.856 -40.32,17.856 -7.68,0 -15.36,-3.456 -7.488,-3.648 -14.016,-10.176 -6.528,-6.528 -10.56,-17.472 -4.032,-10.944 -4.032,-24.384 0,-8.256 1.92,-14.016 3.84,-11.712 16.32,-24.768 12.672,-13.056 23.808,-13.056 3.072,0 9.216,0.576 9.216,0.768 12.864,1.92 3.84,1.152 8.64,4.8 6.144,4.608 10.56,11.904 4.608,7.104 4.608,11.904 0,6.144 -4.8,9.408 -4.8,3.072 -18.624,6.144 -18.048,4.032 -35.328,4.992 l -17.856,0.96 v 7.68 q 0,14.208 13.248,26.88 9.984,9.6 20.736,9.6 8.256,0 17.472,-4.992 9.408,-5.184 15.936,-11.328 6.528,-6.144 12.48,-11.136 5.952,-5.184 8.064,-5.184 z m -30.912,-46.848 q -5.952,-5.376 -9.024,-6.72 -2.88,-1.536 -7.68,-1.536 -9.6,0 -14.4,1.92 -4.608,1.728 -9.408,7.296 -14.592,16.704 -14.592,22.272 0,2.496 4.608,2.496 17.472,0 49.536,-7.296 9.6,-2.304 9.6,-8.064 0,-2.688 -8.64,-10.368 z m 130.17575,-5.376 q 0,-4.416 2.688,-8.832 2.88,-4.416 6.528,-4.416 4.224,0 4.224,4.992 0,9.024 -23.808,73.92 -4.8,13.248 -12.288,24.384 -7.488,11.136 -11.52,11.136 -3.072,0 -5.952,-3.456 -2.688,-3.456 -5.568,-11.136 -2.88,-7.68 -4.992,-14.592 -2.112,-6.912 -5.76,-19.392 -3.456,-12.672 -5.76,-19.968 -11.328,-37.632 -11.328,-42.432 0,-1.728 1.536,-1.728 1.152,0 1.92,0.192 5.568,0.96 13.824,24.768 8.448,23.808 14.976,47.232 6.528,23.424 7.488,23.424 2.112,0 9.024,-14.208 7.104,-14.208 10.752,-26.112 2.688,-8.448 6.528,-19.008 3.84,-10.752 5.568,-16.32 1.92,-5.568 1.92,-8.448 z m 52.79966,7.296 q 14.976,-14.016 25.152,-18.432 10.368,-4.608 26.112,-4.608 23.808,0 29.76,14.208 3.648,8.448 3.648,20.736 0,20.352 -9.024,41.28 -9.024,20.736 -22.272,28.8 -12.864,7.872 -27.072,7.872 -19.776,0 -31.68,-13.632 -8.256,-9.6 -10.752,-16.128 -2.496,-6.72 -2.496,-19.008 0,-23.232 18.624,-41.088 z m 30.912,78.912 q 16.128,0 29.184,-22.08 13.248,-22.272 13.248,-50.304 0,-4.224 -0.96,-6.336 -0.96,-2.112 -3.456,-4.224 -7.104,-5.952 -15.168,-5.952 -1.344,0 -3.072,0.384 -1.536,0.192 -5.184,0.768 -3.648,0.384 -8.64,0.96 -6.72,0.96 -10.752,3.072 -3.84,1.92 -9.792,7.488 -11.328,10.752 -16.128,19.968 -4.8,9.024 -4.8,19.776 0,15.936 9.792,26.112 9.984,10.176 25.728,10.368 z"
       id="text1"
       style="font-size:192px;font-family:Purisa;-inkscape-font-specification:Purisa;white-space:pre;fill:none;stroke:#000000;stroke-width:1.00157"
       transform="scale(0.26458333)"
       aria-label="Feliz año nuevo" />
  </g>
</svg>
